<?xml version="1.0" encoding="utf-8"?>
<!-- Generator: Adobe Illustrator 17.1.0, SVG Export Plug-In . SVG Version: 6.00 Build 0)  -->
<!DOCTYPE svg PUBLIC "-//W3C//DTD SVG 1.1//EN" "http://www.w3.org/Graphics/SVG/1.1/DTD/svg11.dtd">
<svg version="1.1" id="Layer_1" xmlns="http://www.w3.org/2000/svg" xmlns:xlink="http://www.w3.org/1999/xlink" x="0px" y="0px"
	 viewBox="0 0 48.8 48.8" enable-background="new 0 0 48.8 48.8" xml:space="preserve">
<g>
	<path fill="#266395" d="M24.4,48.8c-6.5,0-12.6-2.5-17.2-7.1C2.5,37,0,30.9,0,24.4S2.5,11.7,7.1,7.1C11.7,2.5,17.9,0,24.4,0
		C30.9,0,37,2.5,41.6,7.1c4.6,4.6,7.1,10.7,7.1,17.2c0,6.5-2.5,12.6-7.1,17.2C37,46.2,30.9,48.8,24.4,48.8z"/>
	<g>
		<path fill="#FFFFFF" d="M32.3,22.6l-6.8,7.3c-0.6,1-1.6,1-2.2,0l-6.8-7.3c-0.6-1-0.1-1.9,1.1-1.9H20v-6.5c0-0.6,0.5-1.1,1.1-1.1
			h6.5c0.6,0,1.1,0.5,1.1,1.1v6.5h2.5C32.4,20.8,32.9,21.6,32.3,22.6z"/>
		<polygon fill="#FFFFFF" points="32.2,29.3 32.2,33.1 16.5,33.1 16.5,29.3 13.9,29.3 13.9,35.6 34.9,35.6 34.9,29.3 		"/>
	</g>
</g>
</svg>
