<?xml version="1.0" encoding="utf-8"?>
<!-- Generator: Adobe Illustrator 17.1.0, SVG Export Plug-In . SVG Version: 6.00 Build 0)  -->
<!DOCTYPE svg PUBLIC "-//W3C//DTD SVG 1.1//EN" "http://www.w3.org/Graphics/SVG/1.1/DTD/svg11.dtd">
<svg version="1.1" id="Layer_1" xmlns="http://www.w3.org/2000/svg" xmlns:xlink="http://www.w3.org/1999/xlink" x="0px" y="0px"
	 viewBox="0 0 48.8 48.8" enable-background="new 0 0 48.8 48.8" xml:space="preserve">
<g>
	<path fill="#266395" d="M24.4,48.8c-6.5,0-12.6-2.5-17.2-7.1C2.5,37,0,30.9,0,24.4S2.5,11.8,7.1,7.1C11.7,2.5,17.9,0,24.4,0
		C30.9,0,37,2.5,41.6,7.1c4.6,4.6,7.1,10.7,7.1,17.2c0,6.5-2.5,12.6-7.1,17.2C37,46.2,30.9,48.8,24.4,48.8z"/>
	<g>
		<path fill="#FFFFFF" stroke="#FFFFFF" stroke-miterlimit="10" d="M28,17.2c0,0,2.1,1.6,2.8,3.6c0,0,3.1,0,3.3,0.1
			c0,0,1.4,0.1,2.4,1.7c0,0,0.6,1,0.5,2.4c0,0-0.2,1.2-0.9,1.9c0,0-0.6,0.7-1.6,1c0,0-5.6,0.2-8.6,0.1c0,0-1.7-0.1-2.8-2.2
			c0,0-0.4-0.9-0.2-2c0-0.3,0.2-0.8,0.2-1.1l-3.8-0.1c0,0-0.4,0.6-0.4,2.1c0,0.2,0,0.4,0.1,0.7c0,0.2,0,0.4,0.1,0.7
			c0,0,0,1.5,2.4,3.9c0,0,1.6,1.8,4.3,1.8c0,0,9.4,0.3,10.1-0.3c0,0,1.4,0,3.6-2.8c0,0,1.4-1.6,1.3-4.1c0,0,0.1-1.8-1-3.6
			c0,0-0.8-1.8-2.8-2.9c0,0-0.4-0.2-0.9-0.4c-0.2-0.1-0.4-0.2-0.7-0.2c-0.2-0.1-0.4-0.1-0.7-0.2c-0.5-0.1-1-0.1-1.3-0.1l-1.6,0
			L28,17.2z"/>
		<path fill="#FFFFFF" stroke="#FFFFFF" stroke-miterlimit="10" d="M20.8,31.6c0,0-2.1-1.6-2.8-3.6c0,0-3.1,0-3.3-0.1
			c0,0-1.4-0.1-2.4-1.7c0,0-0.6-1-0.5-2.4c0,0,0.2-1.2,0.9-1.9c0,0,0.6-0.7,1.6-1c0,0,5.6-0.2,8.6-0.1c0,0,1.7,0.1,2.8,2.2
			c0,0,0.4,0.9,0.2,2c0,0.3-0.2,0.8-0.2,1.1l3.8,0.1c0,0,0.4-0.6,0.4-2.1c0-0.2,0-0.4-0.1-0.7c0-0.2,0-0.4-0.1-0.7
			c0,0,0-1.5-2.4-3.9c0,0-1.6-1.8-4.3-1.8c0,0-9.4-0.3-10.1,0.3c0,0-1.4,0-3.6,2.8c0,0-1.4,1.6-1.3,4.1c0,0-0.1,1.8,1,3.6
			c0,0,0.8,1.8,2.8,2.9c0,0,0.4,0.2,0.9,0.4c0.2,0.1,0.4,0.2,0.7,0.2c0.2,0.1,0.4,0.1,0.7,0.2c0.5,0.1,1,0.1,1.3,0.1l1.6,0
			L20.8,31.6z"/>
	</g>
</g>
</svg>
