<?xml version="1.0" encoding="utf-8"?>
<!-- Generator: Adobe Illustrator 17.1.0, SVG Export Plug-In . SVG Version: 6.00 Build 0)  -->
<!DOCTYPE svg PUBLIC "-//W3C//DTD SVG 1.1//EN" "http://www.w3.org/Graphics/SVG/1.1/DTD/svg11.dtd">
<svg version="1.1" id="Layer_1" xmlns="http://www.w3.org/2000/svg" xmlns:xlink="http://www.w3.org/1999/xlink" x="0px" y="0px"
	 viewBox="0 0 48.9 48.9" enable-background="new 0 0 48.9 48.9" xml:space="preserve">
<path fill="#266395" d="M24.4,48.9c-6.5,0-12.7-2.5-17.3-7.2C2.5,37.1,0,31,0,24.4S2.5,11.8,7.2,7.2C11.8,2.5,17.9,0,24.4,0
	C31,0,37.1,2.5,41.7,7.2c4.6,4.6,7.2,10.7,7.2,17.3c0,6.5-2.5,12.7-7.2,17.3C37.1,46.3,31,48.9,24.4,48.9z"/>
<path fill="#FFFFFF" d="M30,30H18.8v1.1H30V30z M27.8,32.3h-9v1.1h9V32.3z M32.3,12.1H16.6v5.6h15.7V12.1z M36.6,18.8H12.3
	c-0.7,0-1.3,0.6-1.3,1.3v9.8c0,0.7,0.6,1.3,1.3,1.3h3.2v5.6h17.9v-5.6h3.2c0.7,0,1.3-0.6,1.3-1.3v-9.8
	C37.9,19.4,37.3,18.8,36.6,18.8z M32.3,35.6H16.6v-7.8h15.7V35.6z"/>
</svg>
